<?xml version="1.0" encoding="utf-8"?>
<!-- Generator: Adobe Illustrator 15.0.2, SVG Export Plug-In . SVG Version: 6.00 Build 0)  -->
<!DOCTYPE svg PUBLIC "-//W3C//DTD SVG 1.1//EN" "http://www.w3.org/Graphics/SVG/1.1/DTD/svg11.dtd">
<svg version="1.1" id="Layer_1" xmlns="http://www.w3.org/2000/svg" xmlns:xlink="http://www.w3.org/1999/xlink" x="0px" y="0px"
	 width="35px" height="39.729px" viewBox="0 0 35 39.729" enable-background="new 0 0 35 39.729" xml:space="preserve">
<path opacity="0.29" fill="#FF931E" d="M75.75,0l-17.5,9.933v19.865l17.5,9.932l17.5-9.932V9.933L75.75,0z M83.551,20.284
	l-4.91,2.649v0.363h4.908v3.83H67.938v-3.83h4.91v-0.363l-4.91-2.649v-4.742l7.807,4.213l7.806-4.213L83.551,20.284L83.551,20.284z"
	/>
<polygon opacity="0.29" fill="#FF931E" points="17.245,39.547 -0.063,29.575 -0.058,9.601 17.256,-0.403 34.563,9.569 
	34.559,29.544 "/>
<g>
	<path fill="#FFFFFF" d="M9.688,14.753H5.491v-2.951h11.944v2.951h-4.243v12.59H9.688V14.753z"/>
	<path fill="#FFFFFF" d="M19.324,11.802h3.506v12.59h6.18v2.951h-9.686V11.802z"/>
</g>
</svg>
